# xmcd
#
# Track frame offsets: 
#        150
#        19569
#        37425
#        58949
#        74593
#        95445
#        112260
#        131654
#        150813
#        172566
#
# Disc length: 2514 seconds
#
# Revision: 0
# Processed by: cddbd v1.5.2PL0 Copyright (c) Steve Scherf et al.
# Submitted via: ExactAudioCopy v1.3
#
DISCID=8409d00a
DTITLE=Sya - Kill My
DYEAR=1900
DGENRE=
TTITLE0=Kill My Voice
TTITLE1=Kill My Memory
TTITLE2=Kill My Eyes
TTITLE3=Kill My Emotion
TTITLE4=Kill My Justice
TTITLE5=Kill My Pain
TTITLE6=Kill My Time
TTITLE7=Kill My Name
TTITLE8=Kill My Language
TTITLE9=Kill My World
EXTD=
EXTT0=
EXTT1=
EXTT2=
EXTT3=
EXTT4=
EXTT5=
EXTT6=
EXTT7=
EXTT8=
EXTT9=
PLAYORDER=
